<mxfile host="app.diagrams.net" agent="Mozilla/5.0 (Windows NT 10.0; Win64; x64) AppleWebKit/537.36 (KHTML, like Gecko) Chrome/132.0.0.0 Safari/537.36" version="26.0.12">
  <diagram id="C5RBs43oDa-KdzZeNtuy" name="Page-1">
    <mxGraphModel grid="1" page="1" gridSize="8" guides="1" tooltips="1" connect="1" arrows="1" fold="1" pageScale="1" pageWidth="1169" pageHeight="827" math="0" shadow="0">
      <root>
        <mxCell id="WIyWlLk6GJQsqaUBKTNV-0" />
        <mxCell id="WIyWlLk6GJQsqaUBKTNV-1" parent="WIyWlLk6GJQsqaUBKTNV-0" />
        <mxCell id="D14pDyfyG_cXZTFJ4IlB-43" value="" style="group;fontSize=5;" connectable="0" vertex="1" parent="WIyWlLk6GJQsqaUBKTNV-1">
          <mxGeometry x="32" y="32" width="296" height="192.55" as="geometry" />
        </mxCell>
        <mxCell id="D14pDyfyG_cXZTFJ4IlB-0" value="&lt;font style=&quot;font-size: 6px;&quot;&gt;Download&lt;/font&gt;&lt;div&gt;&lt;font style=&quot;font-size: 6px;&quot;&gt;App&lt;/font&gt;&lt;/div&gt;" style="ellipse;whiteSpace=wrap;html=1;aspect=fixed;container=0;" vertex="1" parent="D14pDyfyG_cXZTFJ4IlB-43">
          <mxGeometry width="31.581715581209714" height="31.581715581209714" as="geometry" />
        </mxCell>
        <mxCell id="D14pDyfyG_cXZTFJ4IlB-1" value="" style="endArrow=classic;html=1;rounded=0;" edge="1" parent="D14pDyfyG_cXZTFJ4IlB-43">
          <mxGeometry width="50" height="50" relative="1" as="geometry">
            <mxPoint x="52.682926829268276" y="17.968301886792453" as="sourcePoint" />
            <mxPoint x="96.5853658536585" y="18.113207547169814" as="targetPoint" />
            <Array as="points" />
          </mxGeometry>
        </mxCell>
        <mxCell id="D14pDyfyG_cXZTFJ4IlB-2" value="&lt;font style=&quot;font-size: 6px;&quot;&gt;Create Account&lt;/font&gt;" style="rounded=1;whiteSpace=wrap;html=1;container=0;" vertex="1" parent="D14pDyfyG_cXZTFJ4IlB-43">
          <mxGeometry x="96.5853658536585" y="9.056603773584907" width="77.26829268292687" height="18.113207547169814" as="geometry" />
        </mxCell>
        <mxCell id="D14pDyfyG_cXZTFJ4IlB-5" value="" style="endArrow=classic;html=1;rounded=0;" edge="1" parent="D14pDyfyG_cXZTFJ4IlB-43">
          <mxGeometry width="50" height="50" relative="1" as="geometry">
            <mxPoint x="135.00878048780504" y="27.169811320754707" as="sourcePoint" />
            <mxPoint x="135.00878048780504" y="55.54716981132076" as="targetPoint" />
          </mxGeometry>
        </mxCell>
        <mxCell id="D14pDyfyG_cXZTFJ4IlB-37" value="" style="edgeStyle=orthogonalEdgeStyle;rounded=0;orthogonalLoop=1;jettySize=auto;html=1;" edge="1" parent="D14pDyfyG_cXZTFJ4IlB-43" source="D14pDyfyG_cXZTFJ4IlB-7" target="D14pDyfyG_cXZTFJ4IlB-36">
          <mxGeometry relative="1" as="geometry" />
        </mxCell>
        <mxCell id="D14pDyfyG_cXZTFJ4IlB-7" value="&lt;font style=&quot;font-size: 6px;&quot;&gt;Enter Password&lt;/font&gt;" style="rhombus;whiteSpace=wrap;html=1;container=0;" vertex="1" parent="D14pDyfyG_cXZTFJ4IlB-43">
          <mxGeometry x="101.85365853658544" y="119.54716981132077" width="66.73170731707322" height="33.81132075471698" as="geometry" />
        </mxCell>
        <mxCell id="D14pDyfyG_cXZTFJ4IlB-8" value="&lt;font style=&quot;font-size: 6px;&quot;&gt;Enter Email&lt;/font&gt;" style="rhombus;whiteSpace=wrap;html=1;container=0;" vertex="1" parent="D14pDyfyG_cXZTFJ4IlB-43">
          <mxGeometry x="101.85365853658544" y="56.75471698113206" width="66.73170731707322" height="33.81132075471698" as="geometry" />
        </mxCell>
        <mxCell id="D14pDyfyG_cXZTFJ4IlB-10" value="" style="endArrow=classic;html=1;rounded=0;" edge="1" parent="D14pDyfyG_cXZTFJ4IlB-43">
          <mxGeometry width="50" height="50" relative="1" as="geometry">
            <mxPoint x="135.00878048780504" y="90.56603773584906" as="sourcePoint" />
            <mxPoint x="135.00878048780504" y="118.94339622641513" as="targetPoint" />
          </mxGeometry>
        </mxCell>
        <mxCell id="D14pDyfyG_cXZTFJ4IlB-11" value="" style="endArrow=classic;html=1;rounded=0;" edge="1" parent="D14pDyfyG_cXZTFJ4IlB-43">
          <mxGeometry width="50" height="50" relative="1" as="geometry">
            <mxPoint x="168.5853658536587" y="73.51547169811322" as="sourcePoint" />
            <mxPoint x="210.7317073170731" y="73.51547169811322" as="targetPoint" />
          </mxGeometry>
        </mxCell>
        <mxCell id="D14pDyfyG_cXZTFJ4IlB-32" value="&lt;font style=&quot;font-size: 6px;&quot;&gt;Enter Valid Email&lt;/font&gt;" style="rounded=1;whiteSpace=wrap;html=1;container=0;" vertex="1" parent="D14pDyfyG_cXZTFJ4IlB-43">
          <mxGeometry x="210.73" y="65.21" width="69.27" height="16.91" as="geometry" />
        </mxCell>
        <mxCell id="D14pDyfyG_cXZTFJ4IlB-33" value="&lt;font style=&quot;font-size: 6px;&quot;&gt;Invalid&lt;/font&gt;" style="text;html=1;align=center;verticalAlign=middle;whiteSpace=wrap;rounded=0;container=0;" vertex="1" parent="D14pDyfyG_cXZTFJ4IlB-43">
          <mxGeometry x="158.04487804878073" y="56.754905660377354" width="52.68292682926828" height="18.113207547169814" as="geometry" />
        </mxCell>
        <mxCell id="D14pDyfyG_cXZTFJ4IlB-36" value="&lt;font style=&quot;font-size: 6px;&quot;&gt;Enter Valid Password&lt;/font&gt;" style="rounded=1;whiteSpace=wrap;html=1;container=0;" vertex="1" parent="D14pDyfyG_cXZTFJ4IlB-43">
          <mxGeometry x="89.56097560975616" y="172.67924528301887" width="91.31707317073175" height="19.32075471698113" as="geometry" />
        </mxCell>
        <mxCell id="D14pDyfyG_cXZTFJ4IlB-46" value="&lt;font style=&quot;font-size: 6px;&quot;&gt;Account Created&lt;/font&gt;" style="rounded=1;whiteSpace=wrap;html=1;" vertex="1" parent="D14pDyfyG_cXZTFJ4IlB-43">
          <mxGeometry x="208" y="126.45" width="72" height="20" as="geometry" />
        </mxCell>
        <mxCell id="D14pDyfyG_cXZTFJ4IlB-47" value="" style="endArrow=classic;html=1;rounded=0;" edge="1" parent="D14pDyfyG_cXZTFJ4IlB-43">
          <mxGeometry width="50" height="50" relative="1" as="geometry">
            <mxPoint x="168.59" y="136.29" as="sourcePoint" />
            <mxPoint x="208" y="136" as="targetPoint" />
          </mxGeometry>
        </mxCell>
        <mxCell id="D14pDyfyG_cXZTFJ4IlB-51" value="&lt;font style=&quot;font-size: 6px;&quot;&gt;Valid&lt;/font&gt;" style="text;html=1;align=center;verticalAlign=middle;whiteSpace=wrap;rounded=0;" vertex="1" parent="D14pDyfyG_cXZTFJ4IlB-43">
          <mxGeometry x="166.39" y="119.54999999999998" width="36" height="14" as="geometry" />
        </mxCell>
        <mxCell id="TxAB_qxfAcF2J6m0PcY--28" value="&lt;font style=&quot;font-size: 6px;&quot;&gt;Please Try Again&lt;/font&gt;" style="rounded=1;whiteSpace=wrap;html=1;" vertex="1" parent="D14pDyfyG_cXZTFJ4IlB-43">
          <mxGeometry x="232" y="176.55" width="64" height="16" as="geometry" />
        </mxCell>
        <mxCell id="TxAB_qxfAcF2J6m0PcY--30" value="Pass" style="text;html=1;align=center;verticalAlign=middle;whiteSpace=wrap;rounded=0;fontSize=6;rotation=-90;" vertex="1" parent="D14pDyfyG_cXZTFJ4IlB-43">
          <mxGeometry x="280" y="74.86999999999999" width="24" height="8" as="geometry" />
        </mxCell>
        <mxCell id="TxAB_qxfAcF2J6m0PcY--31" value="Pass" style="text;html=1;align=center;verticalAlign=middle;whiteSpace=wrap;rounded=0;fontSize=6;" vertex="1" parent="D14pDyfyG_cXZTFJ4IlB-43">
          <mxGeometry x="136" y="96" width="24" height="8" as="geometry" />
        </mxCell>
        <mxCell id="TxAB_qxfAcF2J6m0PcY--32" value="Pass" style="text;html=1;align=center;verticalAlign=middle;whiteSpace=wrap;rounded=0;fontSize=6;" vertex="1" parent="D14pDyfyG_cXZTFJ4IlB-43">
          <mxGeometry x="136" y="32" width="24" height="8" as="geometry" />
        </mxCell>
        <mxCell id="TxAB_qxfAcF2J6m0PcY--33" value="&lt;font style=&quot;font-size: 6px;&quot;&gt;Invalid&lt;/font&gt;" style="text;html=1;align=center;verticalAlign=middle;whiteSpace=wrap;rounded=0;container=0;" vertex="1" parent="D14pDyfyG_cXZTFJ4IlB-43">
          <mxGeometry x="129.51" y="153.36" width="36.88" height="4.56" as="geometry" />
        </mxCell>
        <mxCell id="D14pDyfyG_cXZTFJ4IlB-53" value="" style="endArrow=classic;html=1;rounded=0;" edge="1" parent="WIyWlLk6GJQsqaUBKTNV-1">
          <mxGeometry width="50" height="50" relative="1" as="geometry">
            <mxPoint x="312" y="168" as="sourcePoint" />
            <mxPoint x="368" y="32" as="targetPoint" />
            <Array as="points">
              <mxPoint x="328" y="168" />
              <mxPoint x="328" y="32" />
            </Array>
          </mxGeometry>
        </mxCell>
        <mxCell id="D14pDyfyG_cXZTFJ4IlB-54" value="&lt;font style=&quot;font-size: 6px;&quot;&gt;Create Profile&lt;/font&gt;" style="rounded=1;whiteSpace=wrap;html=1;container=0;" vertex="1" parent="WIyWlLk6GJQsqaUBKTNV-1">
          <mxGeometry x="367" y="24.15" width="65" height="16.91" as="geometry" />
        </mxCell>
        <mxCell id="D14pDyfyG_cXZTFJ4IlB-63" value="" style="group" connectable="0" vertex="1" parent="WIyWlLk6GJQsqaUBKTNV-1">
          <mxGeometry x="366.6336585365855" y="105.82" width="66.73170731707319" height="63.81603773584902" as="geometry" />
        </mxCell>
        <mxCell id="D14pDyfyG_cXZTFJ4IlB-61" value="&lt;font&gt;Attach&amp;nbsp;&lt;/font&gt;&lt;div&gt;&lt;font&gt;Photos/Sound&lt;/font&gt;&lt;/div&gt;&lt;div&gt;&lt;font&gt;Samples&lt;/font&gt;&lt;/div&gt;" style="rhombus;whiteSpace=wrap;html=1;container=0;fontSize=6;" vertex="1" parent="D14pDyfyG_cXZTFJ4IlB-63">
          <mxGeometry y="30.00471698113205" width="66.73170731707322" height="33.81132075471698" as="geometry" />
        </mxCell>
        <mxCell id="D14pDyfyG_cXZTFJ4IlB-62" value="" style="endArrow=classic;html=1;rounded=0;" edge="1" parent="D14pDyfyG_cXZTFJ4IlB-63">
          <mxGeometry width="50" height="50" relative="1" as="geometry">
            <mxPoint x="33.19634146341457" as="sourcePoint" />
            <mxPoint x="33.19634146341457" y="30" as="targetPoint" />
          </mxGeometry>
        </mxCell>
        <mxCell id="TxAB_qxfAcF2J6m0PcY--22" value="Pass" style="text;html=1;align=center;verticalAlign=middle;whiteSpace=wrap;rounded=0;fontSize=6;" vertex="1" parent="D14pDyfyG_cXZTFJ4IlB-63">
          <mxGeometry x="35.36634146341453" y="6.180000000000007" width="24" height="8" as="geometry" />
        </mxCell>
        <mxCell id="D14pDyfyG_cXZTFJ4IlB-64" value="" style="group" connectable="0" vertex="1" parent="WIyWlLk6GJQsqaUBKTNV-1">
          <mxGeometry x="367" y="42" width="66" height="63.81603773584902" as="geometry" />
        </mxCell>
        <mxCell id="D14pDyfyG_cXZTFJ4IlB-65" value="&lt;font&gt;Initial Data&amp;nbsp;&lt;/font&gt;&lt;div&gt;&lt;font&gt;Questions&lt;/font&gt;&lt;/div&gt;" style="rhombus;whiteSpace=wrap;html=1;container=0;spacing=2;fontSize=6;" vertex="1" parent="D14pDyfyG_cXZTFJ4IlB-64">
          <mxGeometry y="30.00471698113205" width="66.00000000000003" height="33.81132075471698" as="geometry" />
        </mxCell>
        <mxCell id="D14pDyfyG_cXZTFJ4IlB-66" value="" style="endArrow=classic;html=1;rounded=0;" edge="1" parent="D14pDyfyG_cXZTFJ4IlB-64">
          <mxGeometry width="50" height="50" relative="1" as="geometry">
            <mxPoint x="32.832346491227995" as="sourcePoint" />
            <mxPoint x="32.832346491227995" y="30" as="targetPoint" />
          </mxGeometry>
        </mxCell>
        <mxCell id="TxAB_qxfAcF2J6m0PcY--26" value="Pass" style="text;html=1;align=center;verticalAlign=middle;whiteSpace=wrap;rounded=0;fontSize=6;" vertex="1" parent="D14pDyfyG_cXZTFJ4IlB-64">
          <mxGeometry x="33" y="6" width="24" height="8" as="geometry" />
        </mxCell>
        <mxCell id="TxAB_qxfAcF2J6m0PcY--1" value="Alert: Bio increases chances of a match" style="rounded=1;whiteSpace=wrap;html=1;fontSize=6;spacing=2;" vertex="1" parent="WIyWlLk6GJQsqaUBKTNV-1">
          <mxGeometry x="464" y="75" width="66" height="26" as="geometry" />
        </mxCell>
        <mxCell id="TxAB_qxfAcF2J6m0PcY--2" value="" style="edgeStyle=orthogonalEdgeStyle;rounded=0;orthogonalLoop=1;jettySize=auto;html=1;" edge="1" parent="WIyWlLk6GJQsqaUBKTNV-1" source="D14pDyfyG_cXZTFJ4IlB-65" target="TxAB_qxfAcF2J6m0PcY--1">
          <mxGeometry relative="1" as="geometry" />
        </mxCell>
        <mxCell id="TxAB_qxfAcF2J6m0PcY--70" value="" style="edgeStyle=orthogonalEdgeStyle;rounded=0;orthogonalLoop=1;jettySize=auto;html=1;" edge="1" parent="WIyWlLk6GJQsqaUBKTNV-1" source="TxAB_qxfAcF2J6m0PcY--3" target="TxAB_qxfAcF2J6m0PcY--69">
          <mxGeometry relative="1" as="geometry" />
        </mxCell>
        <mxCell id="TxAB_qxfAcF2J6m0PcY--3" value="Hit X Button" style="rounded=1;whiteSpace=wrap;html=1;fontSize=6;" vertex="1" parent="WIyWlLk6GJQsqaUBKTNV-1">
          <mxGeometry x="560" y="90.00000000000003" width="66" height="26" as="geometry" />
        </mxCell>
        <mxCell id="TxAB_qxfAcF2J6m0PcY--4" value="" style="edgeStyle=orthogonalEdgeStyle;rounded=0;orthogonalLoop=1;jettySize=auto;html=1;" edge="1" parent="WIyWlLk6GJQsqaUBKTNV-1">
          <mxGeometry relative="1" as="geometry">
            <mxPoint x="433.3054115853661" y="152.55999999999995" as="sourcePoint" />
            <mxPoint x="464" y="152.55999999999995" as="targetPoint" />
          </mxGeometry>
        </mxCell>
        <mxCell id="TxAB_qxfAcF2J6m0PcY--6" value="" style="group" connectable="0" vertex="1" parent="WIyWlLk6GJQsqaUBKTNV-1">
          <mxGeometry x="366.63" y="169.64" width="66.73170731707319" height="63.81603773584902" as="geometry" />
        </mxCell>
        <mxCell id="TxAB_qxfAcF2J6m0PcY--7" value="Verify Account" style="rhombus;whiteSpace=wrap;html=1;container=0;fontSize=6;" vertex="1" parent="TxAB_qxfAcF2J6m0PcY--6">
          <mxGeometry y="30.00471698113205" width="66.73170731707322" height="33.81132075471698" as="geometry" />
        </mxCell>
        <mxCell id="TxAB_qxfAcF2J6m0PcY--8" value="" style="endArrow=classic;html=1;rounded=0;" edge="1" parent="TxAB_qxfAcF2J6m0PcY--6">
          <mxGeometry width="50" height="50" relative="1" as="geometry">
            <mxPoint x="33.19634146341457" as="sourcePoint" />
            <mxPoint x="33.19634146341457" y="30" as="targetPoint" />
          </mxGeometry>
        </mxCell>
        <mxCell id="TxAB_qxfAcF2J6m0PcY--25" value="Pass" style="text;html=1;align=center;verticalAlign=middle;whiteSpace=wrap;rounded=0;fontSize=6;" vertex="1" parent="TxAB_qxfAcF2J6m0PcY--6">
          <mxGeometry x="35.370000000000005" y="6.360000000000014" width="24" height="8" as="geometry" />
        </mxCell>
        <mxCell id="TxAB_qxfAcF2J6m0PcY--9" value="Skip" style="text;html=1;align=center;verticalAlign=middle;whiteSpace=wrap;rounded=0;fontSize=6;" vertex="1" parent="WIyWlLk6GJQsqaUBKTNV-1">
          <mxGeometry x="432" y="80" width="24" height="9" as="geometry" />
        </mxCell>
        <mxCell id="TxAB_qxfAcF2J6m0PcY--11" value="Skip" style="text;html=1;align=center;verticalAlign=middle;whiteSpace=wrap;rounded=0;fontSize=6;" vertex="1" parent="WIyWlLk6GJQsqaUBKTNV-1">
          <mxGeometry x="433" y="143" width="24" height="11" as="geometry" />
        </mxCell>
        <mxCell id="TxAB_qxfAcF2J6m0PcY--13" value="Alert: Verification Helps Protect Your Account" style="rounded=1;whiteSpace=wrap;html=1;fontSize=6;" vertex="1" parent="WIyWlLk6GJQsqaUBKTNV-1">
          <mxGeometry x="464" y="203.55" width="66" height="26" as="geometry" />
        </mxCell>
        <mxCell id="TxAB_qxfAcF2J6m0PcY--14" value="" style="edgeStyle=orthogonalEdgeStyle;rounded=0;orthogonalLoop=1;jettySize=auto;html=1;" edge="1" parent="WIyWlLk6GJQsqaUBKTNV-1" source="TxAB_qxfAcF2J6m0PcY--7" target="TxAB_qxfAcF2J6m0PcY--13">
          <mxGeometry relative="1" as="geometry" />
        </mxCell>
        <mxCell id="TxAB_qxfAcF2J6m0PcY--15" value="Skip" style="text;html=1;align=center;verticalAlign=middle;whiteSpace=wrap;rounded=0;fontSize=6;" vertex="1" parent="WIyWlLk6GJQsqaUBKTNV-1">
          <mxGeometry x="433.37" y="207" width="24" height="11" as="geometry" />
        </mxCell>
        <mxCell id="TxAB_qxfAcF2J6m0PcY--19" value="Account Verified Stamp Attached to Profile" style="rounded=1;whiteSpace=wrap;html=1;fontSize=6;" vertex="1" parent="WIyWlLk6GJQsqaUBKTNV-1">
          <mxGeometry x="348.5" y="264" width="102" height="27.64" as="geometry" />
        </mxCell>
        <mxCell id="TxAB_qxfAcF2J6m0PcY--20" value="" style="edgeStyle=orthogonalEdgeStyle;rounded=0;orthogonalLoop=1;jettySize=auto;html=1;" edge="1" parent="WIyWlLk6GJQsqaUBKTNV-1" source="TxAB_qxfAcF2J6m0PcY--7" target="TxAB_qxfAcF2J6m0PcY--19">
          <mxGeometry relative="1" as="geometry" />
        </mxCell>
        <mxCell id="TxAB_qxfAcF2J6m0PcY--21" value="Verified" style="text;html=1;align=center;verticalAlign=middle;whiteSpace=wrap;rounded=0;fontSize=6;" vertex="1" parent="WIyWlLk6GJQsqaUBKTNV-1">
          <mxGeometry x="400" y="240" width="32" height="6" as="geometry" />
        </mxCell>
        <mxCell id="TxAB_qxfAcF2J6m0PcY--27" value="" style="edgeStyle=orthogonalEdgeStyle;rounded=0;orthogonalLoop=1;jettySize=auto;html=1;" edge="1" parent="WIyWlLk6GJQsqaUBKTNV-1" source="TxAB_qxfAcF2J6m0PcY--7" target="TxAB_qxfAcF2J6m0PcY--28">
          <mxGeometry relative="1" as="geometry">
            <mxPoint x="336" y="216" as="targetPoint" />
          </mxGeometry>
        </mxCell>
        <mxCell id="TxAB_qxfAcF2J6m0PcY--29" value="Error" style="text;html=1;align=center;verticalAlign=middle;whiteSpace=wrap;rounded=0;fontSize=6;" vertex="1" parent="WIyWlLk6GJQsqaUBKTNV-1">
          <mxGeometry x="342.63" y="208.5" width="24" height="8" as="geometry" />
        </mxCell>
        <mxCell id="TxAB_qxfAcF2J6m0PcY--34" value="" style="group" connectable="0" vertex="1" parent="WIyWlLk6GJQsqaUBKTNV-1">
          <mxGeometry x="365.26365853658547" y="291.64" width="66.73170731707319" height="63.81603773584902" as="geometry" />
        </mxCell>
        <mxCell id="TxAB_qxfAcF2J6m0PcY--35" value="Already in a Band" style="rhombus;whiteSpace=wrap;html=1;container=0;fontSize=6;" vertex="1" parent="TxAB_qxfAcF2J6m0PcY--34">
          <mxGeometry y="30.00471698113205" width="66.73170731707322" height="33.81132075471698" as="geometry" />
        </mxCell>
        <mxCell id="TxAB_qxfAcF2J6m0PcY--36" value="" style="endArrow=classic;html=1;rounded=0;" edge="1" parent="TxAB_qxfAcF2J6m0PcY--34">
          <mxGeometry width="50" height="50" relative="1" as="geometry">
            <mxPoint x="33.19634146341457" as="sourcePoint" />
            <mxPoint x="33.19634146341457" y="30" as="targetPoint" />
          </mxGeometry>
        </mxCell>
        <mxCell id="TxAB_qxfAcF2J6m0PcY--38" value="No Worries:&lt;div&gt;Skip to Browse Other Profiles&lt;/div&gt;" style="rounded=1;whiteSpace=wrap;html=1;fontSize=6;" vertex="1" parent="WIyWlLk6GJQsqaUBKTNV-1">
          <mxGeometry x="464" y="324.41" width="66.64" height="28.28" as="geometry" />
        </mxCell>
        <mxCell id="TxAB_qxfAcF2J6m0PcY--39" value="" style="edgeStyle=orthogonalEdgeStyle;rounded=0;orthogonalLoop=1;jettySize=auto;html=1;" edge="1" parent="WIyWlLk6GJQsqaUBKTNV-1" source="TxAB_qxfAcF2J6m0PcY--35" target="TxAB_qxfAcF2J6m0PcY--38">
          <mxGeometry relative="1" as="geometry" />
        </mxCell>
        <mxCell id="TxAB_qxfAcF2J6m0PcY--40" value="No" style="text;html=1;align=center;verticalAlign=middle;whiteSpace=wrap;rounded=0;fontSize=6;" vertex="1" parent="WIyWlLk6GJQsqaUBKTNV-1">
          <mxGeometry x="428" y="328.83" width="32" height="6" as="geometry" />
        </mxCell>
        <mxCell id="TxAB_qxfAcF2J6m0PcY--41" value="" style="group" connectable="0" vertex="1" parent="WIyWlLk6GJQsqaUBKTNV-1">
          <mxGeometry x="366.1336585365855" y="355.46" width="66.73170731707319" height="63.81603773584902" as="geometry" />
        </mxCell>
        <mxCell id="TxAB_qxfAcF2J6m0PcY--42" value="Have&amp;nbsp; All Members&lt;div&gt;Created an account&lt;/div&gt;" style="rhombus;whiteSpace=wrap;html=1;container=0;fontSize=5;spacing=2;" vertex="1" parent="TxAB_qxfAcF2J6m0PcY--41">
          <mxGeometry y="30.00471698113205" width="67" height="37" as="geometry" />
        </mxCell>
        <mxCell id="TxAB_qxfAcF2J6m0PcY--43" value="" style="endArrow=classic;html=1;rounded=0;" edge="1" parent="TxAB_qxfAcF2J6m0PcY--41">
          <mxGeometry width="50" height="50" relative="1" as="geometry">
            <mxPoint x="33.19634146341457" as="sourcePoint" />
            <mxPoint x="33.19634146341457" y="30" as="targetPoint" />
          </mxGeometry>
        </mxCell>
        <mxCell id="TxAB_qxfAcF2J6m0PcY--44" value="Yes" style="text;html=1;align=center;verticalAlign=middle;whiteSpace=wrap;rounded=0;fontSize=6;" vertex="1" parent="TxAB_qxfAcF2J6m0PcY--41">
          <mxGeometry x="35.36634146341453" y="6.180000000000007" width="24" height="8" as="geometry" />
        </mxCell>
        <mxCell id="TxAB_qxfAcF2J6m0PcY--55" value="" style="edgeStyle=orthogonalEdgeStyle;rounded=0;orthogonalLoop=1;jettySize=auto;html=1;" edge="1" parent="WIyWlLk6GJQsqaUBKTNV-1" source="TxAB_qxfAcF2J6m0PcY--46" target="TxAB_qxfAcF2J6m0PcY--54">
          <mxGeometry relative="1" as="geometry" />
        </mxCell>
        <mxCell id="TxAB_qxfAcF2J6m0PcY--58" value="" style="edgeStyle=orthogonalEdgeStyle;rounded=0;orthogonalLoop=1;jettySize=auto;html=1;" edge="1" parent="WIyWlLk6GJQsqaUBKTNV-1" source="TxAB_qxfAcF2J6m0PcY--46" target="TxAB_qxfAcF2J6m0PcY--57">
          <mxGeometry relative="1" as="geometry" />
        </mxCell>
        <mxCell id="TxAB_qxfAcF2J6m0PcY--46" value="Has Every Member&lt;div&gt;Joined the Group&lt;/div&gt;" style="rhombus;whiteSpace=wrap;html=1;container=0;fontSize=6;" vertex="1" parent="WIyWlLk6GJQsqaUBKTNV-1">
          <mxGeometry x="363.5036585365855" y="453" width="72" height="50" as="geometry" />
        </mxCell>
        <mxCell id="TxAB_qxfAcF2J6m0PcY--47" value="" style="endArrow=classic;html=1;rounded=0;" edge="1" parent="WIyWlLk6GJQsqaUBKTNV-1">
          <mxGeometry width="50" height="50" relative="1" as="geometry">
            <mxPoint x="399.33000000000004" y="423" as="sourcePoint" />
            <mxPoint x="399.33000000000004" y="453" as="targetPoint" />
          </mxGeometry>
        </mxCell>
        <mxCell id="TxAB_qxfAcF2J6m0PcY--48" value="Yes" style="text;html=1;align=center;verticalAlign=middle;whiteSpace=wrap;rounded=0;fontSize=6;" vertex="1" parent="WIyWlLk6GJQsqaUBKTNV-1">
          <mxGeometry x="401.5" y="429.18" width="24" height="8" as="geometry" />
        </mxCell>
        <mxCell id="TxAB_qxfAcF2J6m0PcY--49" value="All Members Should Have an Account" style="rounded=1;whiteSpace=wrap;html=1;fontSize=5;spacing=2;" vertex="1" parent="WIyWlLk6GJQsqaUBKTNV-1">
          <mxGeometry x="255.37" y="390.98" width="72.63" height="25.96" as="geometry" />
        </mxCell>
        <mxCell id="TxAB_qxfAcF2J6m0PcY--50" value="" style="edgeStyle=orthogonalEdgeStyle;rounded=0;orthogonalLoop=1;jettySize=auto;html=1;" edge="1" parent="WIyWlLk6GJQsqaUBKTNV-1" source="TxAB_qxfAcF2J6m0PcY--42" target="TxAB_qxfAcF2J6m0PcY--49">
          <mxGeometry relative="1" as="geometry" />
        </mxCell>
        <mxCell id="TxAB_qxfAcF2J6m0PcY--51" value="No" style="text;html=1;align=center;verticalAlign=middle;whiteSpace=wrap;rounded=0;fontSize=6;" vertex="1" parent="WIyWlLk6GJQsqaUBKTNV-1">
          <mxGeometry x="341" y="397" width="24" height="8" as="geometry" />
        </mxCell>
        <mxCell id="TxAB_qxfAcF2J6m0PcY--53" value="" style="endArrow=classic;html=1;rounded=0;entryX=0;entryY=0.5;entryDx=0;entryDy=0;exitX=0;exitY=0.5;exitDx=0;exitDy=0;" edge="1" parent="WIyWlLk6GJQsqaUBKTNV-1" source="TxAB_qxfAcF2J6m0PcY--49" target="D14pDyfyG_cXZTFJ4IlB-0">
          <mxGeometry width="50" height="50" relative="1" as="geometry">
            <mxPoint x="240" y="405" as="sourcePoint" />
            <mxPoint x="8" y="48" as="targetPoint" />
            <Array as="points">
              <mxPoint x="8" y="404" />
              <mxPoint x="8" y="48" />
            </Array>
          </mxGeometry>
        </mxCell>
        <mxCell id="TxAB_qxfAcF2J6m0PcY--54" value="Please Add All Members To the Group" style="rounded=1;whiteSpace=wrap;html=1;fontSize=6;" vertex="1" parent="WIyWlLk6GJQsqaUBKTNV-1">
          <mxGeometry x="464" y="468" width="72" height="20" as="geometry" />
        </mxCell>
        <mxCell id="TxAB_qxfAcF2J6m0PcY--56" value="No" style="text;html=1;align=center;verticalAlign=middle;whiteSpace=wrap;rounded=0;fontSize=6;" vertex="1" parent="WIyWlLk6GJQsqaUBKTNV-1">
          <mxGeometry x="425.37" y="464" width="40" height="16" as="geometry" />
        </mxCell>
        <mxCell id="TxAB_qxfAcF2J6m0PcY--61" value="" style="edgeStyle=orthogonalEdgeStyle;rounded=0;orthogonalLoop=1;jettySize=auto;html=1;entryX=0;entryY=0.5;entryDx=0;entryDy=0;" edge="1" parent="WIyWlLk6GJQsqaUBKTNV-1" source="TxAB_qxfAcF2J6m0PcY--57" target="TxAB_qxfAcF2J6m0PcY--60">
          <mxGeometry relative="1" as="geometry">
            <Array as="points">
              <mxPoint x="545" y="542" />
              <mxPoint x="545" y="44" />
            </Array>
          </mxGeometry>
        </mxCell>
        <mxCell id="TxAB_qxfAcF2J6m0PcY--57" value="Congratulations You Have a Band Page&amp;nbsp;" style="rounded=1;whiteSpace=wrap;html=1;fontSize=6;" vertex="1" parent="WIyWlLk6GJQsqaUBKTNV-1">
          <mxGeometry x="349.25" y="528" width="100.5" height="27" as="geometry" />
        </mxCell>
        <mxCell id="TxAB_qxfAcF2J6m0PcY--60" value="Browse Through Other Profiles" style="whiteSpace=wrap;html=1;fontSize=6;rounded=1;" vertex="1" parent="WIyWlLk6GJQsqaUBKTNV-1">
          <mxGeometry x="656" y="32" width="72" height="24" as="geometry" />
        </mxCell>
        <mxCell id="TxAB_qxfAcF2J6m0PcY--62" value="" style="endArrow=classic;html=1;rounded=0;exitX=1;exitY=0.5;exitDx=0;exitDy=0;entryX=0;entryY=0.75;entryDx=0;entryDy=0;" edge="1" parent="WIyWlLk6GJQsqaUBKTNV-1" source="TxAB_qxfAcF2J6m0PcY--38" target="TxAB_qxfAcF2J6m0PcY--60">
          <mxGeometry width="50" height="50" relative="1" as="geometry">
            <mxPoint x="536" y="341.64" as="sourcePoint" />
            <mxPoint x="600" y="50" as="targetPoint" />
            <Array as="points">
              <mxPoint x="552" y="339" />
              <mxPoint x="552" y="50" />
            </Array>
          </mxGeometry>
        </mxCell>
        <mxCell id="TxAB_qxfAcF2J6m0PcY--64" value="" style="group" connectable="0" vertex="1" parent="WIyWlLk6GJQsqaUBKTNV-1">
          <mxGeometry x="658.63" y="56.09" width="66.73170731707319" height="63.81603773584902" as="geometry" />
        </mxCell>
        <mxCell id="TxAB_qxfAcF2J6m0PcY--65" value="Interested?" style="rhombus;whiteSpace=wrap;html=1;container=0;fontSize=6;" vertex="1" parent="TxAB_qxfAcF2J6m0PcY--64">
          <mxGeometry y="30.00471698113205" width="66.73170731707322" height="33.81132075471698" as="geometry" />
        </mxCell>
        <mxCell id="TxAB_qxfAcF2J6m0PcY--66" value="" style="endArrow=classic;html=1;rounded=0;" edge="1" parent="TxAB_qxfAcF2J6m0PcY--64">
          <mxGeometry width="50" height="50" relative="1" as="geometry">
            <mxPoint x="33.19634146341457" as="sourcePoint" />
            <mxPoint x="33.19634146341457" y="30" as="targetPoint" />
          </mxGeometry>
        </mxCell>
        <mxCell id="TxAB_qxfAcF2J6m0PcY--68" value="" style="edgeStyle=orthogonalEdgeStyle;rounded=0;orthogonalLoop=1;jettySize=auto;html=1;" edge="1" parent="WIyWlLk6GJQsqaUBKTNV-1" source="TxAB_qxfAcF2J6m0PcY--65" target="TxAB_qxfAcF2J6m0PcY--3">
          <mxGeometry relative="1" as="geometry" />
        </mxCell>
        <mxCell id="TxAB_qxfAcF2J6m0PcY--69" value="User Has Unlimited Dislikes" style="rounded=1;whiteSpace=wrap;html=1;fontSize=6;" vertex="1" parent="WIyWlLk6GJQsqaUBKTNV-1">
          <mxGeometry x="560" y="133" width="66" height="26" as="geometry" />
        </mxCell>
        <mxCell id="TxAB_qxfAcF2J6m0PcY--74" value="" style="edgeStyle=orthogonalEdgeStyle;rounded=0;orthogonalLoop=1;jettySize=auto;html=1;" edge="1" parent="WIyWlLk6GJQsqaUBKTNV-1" source="TxAB_qxfAcF2J6m0PcY--71" target="TxAB_qxfAcF2J6m0PcY--73">
          <mxGeometry relative="1" as="geometry" />
        </mxCell>
        <mxCell id="TxAB_qxfAcF2J6m0PcY--76" value="" style="edgeStyle=orthogonalEdgeStyle;rounded=0;orthogonalLoop=1;jettySize=auto;html=1;" edge="1" parent="WIyWlLk6GJQsqaUBKTNV-1" source="TxAB_qxfAcF2J6m0PcY--71" target="TxAB_qxfAcF2J6m0PcY--75">
          <mxGeometry relative="1" as="geometry" />
        </mxCell>
        <mxCell id="TxAB_qxfAcF2J6m0PcY--71" value="Hit Like Button" style="rounded=1;whiteSpace=wrap;html=1;fontSize=6;" vertex="1" parent="WIyWlLk6GJQsqaUBKTNV-1">
          <mxGeometry x="760" y="90" width="66" height="26" as="geometry" />
        </mxCell>
        <mxCell id="TxAB_qxfAcF2J6m0PcY--72" value="" style="edgeStyle=orthogonalEdgeStyle;rounded=0;orthogonalLoop=1;jettySize=auto;html=1;" edge="1" parent="WIyWlLk6GJQsqaUBKTNV-1" source="TxAB_qxfAcF2J6m0PcY--65" target="TxAB_qxfAcF2J6m0PcY--71">
          <mxGeometry relative="1" as="geometry" />
        </mxCell>
        <mxCell id="TxAB_qxfAcF2J6m0PcY--73" value="User Can Scroll Until Max Like Limit is Reached" style="rounded=1;whiteSpace=wrap;html=1;fontSize=6;" vertex="1" parent="WIyWlLk6GJQsqaUBKTNV-1">
          <mxGeometry x="760" y="144" width="66" height="26" as="geometry" />
        </mxCell>
        <mxCell id="TxAB_qxfAcF2J6m0PcY--78" value="" style="edgeStyle=orthogonalEdgeStyle;rounded=0;orthogonalLoop=1;jettySize=auto;html=1;" edge="1" parent="WIyWlLk6GJQsqaUBKTNV-1" source="TxAB_qxfAcF2J6m0PcY--75" target="TxAB_qxfAcF2J6m0PcY--77">
          <mxGeometry relative="1" as="geometry" />
        </mxCell>
        <mxCell id="TxAB_qxfAcF2J6m0PcY--75" value="Like Notification Gets Sent to Recipient." style="whiteSpace=wrap;html=1;fontSize=6;rounded=1;" vertex="1" parent="WIyWlLk6GJQsqaUBKTNV-1">
          <mxGeometry x="879" y="90" width="66" height="26" as="geometry" />
        </mxCell>
        <mxCell id="TxAB_qxfAcF2J6m0PcY--77" value="Recipient Can Choose to Like or Dislike" style="whiteSpace=wrap;html=1;fontSize=6;rounded=1;" vertex="1" parent="WIyWlLk6GJQsqaUBKTNV-1">
          <mxGeometry x="879" y="135.5" width="66" height="26" as="geometry" />
        </mxCell>
        <mxCell id="TxAB_qxfAcF2J6m0PcY--82" value="" style="group" connectable="0" vertex="1" parent="WIyWlLk6GJQsqaUBKTNV-1">
          <mxGeometry x="658.63" y="144.68" width="66.73170731707319" height="63.81603773584902" as="geometry" />
        </mxCell>
        <mxCell id="TxAB_qxfAcF2J6m0PcY--83" value="Is it a Match" style="rhombus;whiteSpace=wrap;html=1;container=0;fontSize=6;" vertex="1" parent="TxAB_qxfAcF2J6m0PcY--82">
          <mxGeometry y="30.00471698113205" width="66.73170731707322" height="33.81132075471698" as="geometry" />
        </mxCell>
        <mxCell id="TxAB_qxfAcF2J6m0PcY--84" value="" style="endArrow=classic;html=1;rounded=0;exitX=0.5;exitY=1;exitDx=0;exitDy=0;entryX=1;entryY=0.5;entryDx=0;entryDy=0;" edge="1" parent="WIyWlLk6GJQsqaUBKTNV-1" source="TxAB_qxfAcF2J6m0PcY--77" target="TxAB_qxfAcF2J6m0PcY--83">
          <mxGeometry width="50" height="50" relative="1" as="geometry">
            <mxPoint x="691.8263414634146" y="182.18" as="sourcePoint" />
            <mxPoint x="691.8263414634146" y="212.18" as="targetPoint" />
            <Array as="points">
              <mxPoint x="912" y="192" />
              <mxPoint x="768" y="192" />
            </Array>
          </mxGeometry>
        </mxCell>
        <mxCell id="TxAB_qxfAcF2J6m0PcY--94" value="" style="edgeStyle=orthogonalEdgeStyle;rounded=0;orthogonalLoop=1;jettySize=auto;html=1;entryX=0;entryY=0.615;entryDx=0;entryDy=0;entryPerimeter=0;" edge="1" parent="WIyWlLk6GJQsqaUBKTNV-1" source="TxAB_qxfAcF2J6m0PcY--85" target="TxAB_qxfAcF2J6m0PcY--93">
          <mxGeometry relative="1" as="geometry">
            <mxPoint x="976" y="72" as="targetPoint" />
            <Array as="points">
              <mxPoint x="952" y="269" />
              <mxPoint x="952" y="80" />
            </Array>
          </mxGeometry>
        </mxCell>
        <mxCell id="TxAB_qxfAcF2J6m0PcY--85" value="Match" style="rounded=1;whiteSpace=wrap;html=1;fontSize=6;" vertex="1" parent="WIyWlLk6GJQsqaUBKTNV-1">
          <mxGeometry x="658.6258536585366" y="256.00169811320757" width="66" height="26" as="geometry" />
        </mxCell>
        <mxCell id="TxAB_qxfAcF2J6m0PcY--86" value="" style="edgeStyle=orthogonalEdgeStyle;rounded=0;orthogonalLoop=1;jettySize=auto;html=1;" edge="1" parent="WIyWlLk6GJQsqaUBKTNV-1" source="TxAB_qxfAcF2J6m0PcY--83" target="TxAB_qxfAcF2J6m0PcY--85">
          <mxGeometry relative="1" as="geometry" />
        </mxCell>
        <mxCell id="TxAB_qxfAcF2J6m0PcY--88" value="" style="edgeStyle=orthogonalEdgeStyle;rounded=0;orthogonalLoop=1;jettySize=auto;html=1;entryX=1;entryY=0.5;entryDx=0;entryDy=0;" edge="1" parent="WIyWlLk6GJQsqaUBKTNV-1" source="TxAB_qxfAcF2J6m0PcY--83" target="TxAB_qxfAcF2J6m0PcY--90">
          <mxGeometry relative="1" as="geometry">
            <mxPoint x="632" y="192" as="targetPoint" />
          </mxGeometry>
        </mxCell>
        <mxCell id="TxAB_qxfAcF2J6m0PcY--90" value="&lt;font&gt;Dislikes Can Be Deleted or Kept in a Queue&lt;/font&gt;" style="rounded=1;whiteSpace=wrap;html=1;fontSize=6;" vertex="1" parent="WIyWlLk6GJQsqaUBKTNV-1">
          <mxGeometry x="568" y="178.59" width="66" height="26" as="geometry" />
        </mxCell>
        <mxCell id="TxAB_qxfAcF2J6m0PcY--93" value="List of Matches" style="whiteSpace=wrap;html=1;fontSize=6;rounded=1;" vertex="1" parent="WIyWlLk6GJQsqaUBKTNV-1">
          <mxGeometry x="967.9958536585366" y="64.00169811320757" width="66" height="26" as="geometry" />
        </mxCell>
        <mxCell id="TxAB_qxfAcF2J6m0PcY--95" value="" style="group" connectable="0" vertex="1" parent="WIyWlLk6GJQsqaUBKTNV-1">
          <mxGeometry x="967.63" y="90.18" width="66.73170731707319" height="127.63603773584902" as="geometry" />
        </mxCell>
        <mxCell id="TxAB_qxfAcF2J6m0PcY--96" value="Want to Communicate" style="rhombus;whiteSpace=wrap;html=1;container=0;fontSize=6;" vertex="1" parent="TxAB_qxfAcF2J6m0PcY--95">
          <mxGeometry y="30.00471698113205" width="66.73170731707322" height="33.81132075471698" as="geometry" />
        </mxCell>
        <mxCell id="TxAB_qxfAcF2J6m0PcY--97" value="" style="endArrow=classic;html=1;rounded=0;" edge="1" parent="TxAB_qxfAcF2J6m0PcY--95">
          <mxGeometry width="50" height="50" relative="1" as="geometry">
            <mxPoint x="33.19634146341457" as="sourcePoint" />
            <mxPoint x="33.19634146341457" y="30" as="targetPoint" />
          </mxGeometry>
        </mxCell>
        <mxCell id="TxAB_qxfAcF2J6m0PcY--100" value="" style="group" connectable="0" vertex="1" parent="TxAB_qxfAcF2J6m0PcY--95">
          <mxGeometry y="63.81999999999999" width="66.73170731707319" height="63.81603773584902" as="geometry" />
        </mxCell>
        <mxCell id="TxAB_qxfAcF2J6m0PcY--101" value="Want to Join?" style="rhombus;whiteSpace=wrap;html=1;container=0;fontSize=6;" vertex="1" parent="TxAB_qxfAcF2J6m0PcY--100">
          <mxGeometry y="30.00471698113205" width="66.73170731707322" height="33.81132075471698" as="geometry" />
        </mxCell>
        <mxCell id="TxAB_qxfAcF2J6m0PcY--102" value="" style="endArrow=classic;html=1;rounded=0;" edge="1" parent="TxAB_qxfAcF2J6m0PcY--100">
          <mxGeometry width="50" height="50" relative="1" as="geometry">
            <mxPoint x="33.19634146341457" as="sourcePoint" />
            <mxPoint x="33.19634146341457" y="30" as="targetPoint" />
          </mxGeometry>
        </mxCell>
        <mxCell id="TxAB_qxfAcF2J6m0PcY--120" value="&lt;font style=&quot;font-size: 6px;&quot;&gt;Pass&lt;/font&gt;" style="text;html=1;align=center;verticalAlign=middle;resizable=0;points=[];autosize=1;strokeColor=none;fillColor=none;" vertex="1" parent="TxAB_qxfAcF2J6m0PcY--100">
          <mxGeometry x="24.370000000000005" y="-2" width="32" height="32" as="geometry" />
        </mxCell>
        <mxCell id="TxAB_qxfAcF2J6m0PcY--121" value="&lt;font style=&quot;font-size: 6px;&quot;&gt;Pass&lt;/font&gt;" style="text;html=1;align=center;verticalAlign=middle;resizable=0;points=[];autosize=1;strokeColor=none;fillColor=none;" vertex="1" parent="TxAB_qxfAcF2J6m0PcY--95">
          <mxGeometry x="24.370000000000005" y="-2.000000000000014" width="32" height="32" as="geometry" />
        </mxCell>
        <mxCell id="TxAB_qxfAcF2J6m0PcY--98" value="Matches Aren&#39;t Required to Reply" style="rounded=1;whiteSpace=wrap;html=1;fontSize=6;" vertex="1" parent="WIyWlLk6GJQsqaUBKTNV-1">
          <mxGeometry x="1079.9975609756098" y="124.73037735849054" width="66" height="26" as="geometry" />
        </mxCell>
        <mxCell id="TxAB_qxfAcF2J6m0PcY--99" value="" style="edgeStyle=orthogonalEdgeStyle;rounded=0;orthogonalLoop=1;jettySize=auto;html=1;" edge="1" parent="WIyWlLk6GJQsqaUBKTNV-1" source="TxAB_qxfAcF2J6m0PcY--96" target="TxAB_qxfAcF2J6m0PcY--98">
          <mxGeometry relative="1" as="geometry" />
        </mxCell>
        <mxCell id="TxAB_qxfAcF2J6m0PcY--103" value="Save the Match for Later or Delete" style="rounded=1;whiteSpace=wrap;html=1;fontSize=6;" vertex="1" parent="WIyWlLk6GJQsqaUBKTNV-1">
          <mxGeometry x="1079.9975609756098" y="187.91037735849054" width="66" height="26" as="geometry" />
        </mxCell>
        <mxCell id="TxAB_qxfAcF2J6m0PcY--104" value="" style="edgeStyle=orthogonalEdgeStyle;rounded=0;orthogonalLoop=1;jettySize=auto;html=1;" edge="1" parent="WIyWlLk6GJQsqaUBKTNV-1" source="TxAB_qxfAcF2J6m0PcY--101" target="TxAB_qxfAcF2J6m0PcY--103">
          <mxGeometry relative="1" as="geometry" />
        </mxCell>
        <mxCell id="TxAB_qxfAcF2J6m0PcY--111" value="" style="edgeStyle=orthogonalEdgeStyle;rounded=0;orthogonalLoop=1;jettySize=auto;html=1;" edge="1" parent="WIyWlLk6GJQsqaUBKTNV-1" source="TxAB_qxfAcF2J6m0PcY--108" target="TxAB_qxfAcF2J6m0PcY--110">
          <mxGeometry relative="1" as="geometry" />
        </mxCell>
        <mxCell id="TxAB_qxfAcF2J6m0PcY--108" value="Both Musicians accept invitation requests and both accounts gets paired to the group/band page" style="rounded=1;whiteSpace=wrap;html=1;fontSize=6;" vertex="1" parent="WIyWlLk6GJQsqaUBKTNV-1">
          <mxGeometry x="968" y="265.64" width="66" height="46.36" as="geometry" />
        </mxCell>
        <mxCell id="TxAB_qxfAcF2J6m0PcY--109" value="" style="edgeStyle=orthogonalEdgeStyle;rounded=0;orthogonalLoop=1;jettySize=auto;html=1;" edge="1" parent="WIyWlLk6GJQsqaUBKTNV-1" source="TxAB_qxfAcF2J6m0PcY--101" target="TxAB_qxfAcF2J6m0PcY--108">
          <mxGeometry relative="1" as="geometry" />
        </mxCell>
        <mxCell id="TxAB_qxfAcF2J6m0PcY--110" value="End" style="ellipse;whiteSpace=wrap;html=1;fontSize=6;rounded=1;" vertex="1" parent="WIyWlLk6GJQsqaUBKTNV-1">
          <mxGeometry x="1090.5" y="264" width="45" height="48" as="geometry" />
        </mxCell>
        <mxCell id="TxAB_qxfAcF2J6m0PcY--112" value="No" style="text;html=1;align=center;verticalAlign=middle;whiteSpace=wrap;rounded=0;fontSize=6;" vertex="1" parent="WIyWlLk6GJQsqaUBKTNV-1">
          <mxGeometry x="1040" y="124.73" width="24" height="11" as="geometry" />
        </mxCell>
        <mxCell id="TxAB_qxfAcF2J6m0PcY--113" value="No" style="text;html=1;align=center;verticalAlign=middle;whiteSpace=wrap;rounded=0;fontSize=6;" vertex="1" parent="WIyWlLk6GJQsqaUBKTNV-1">
          <mxGeometry x="1040" y="187.91" width="24" height="11" as="geometry" />
        </mxCell>
        <mxCell id="TxAB_qxfAcF2J6m0PcY--116" value="&lt;font style=&quot;font-size: 6px;&quot;&gt;Pass&lt;/font&gt;" style="text;html=1;align=center;verticalAlign=middle;resizable=0;points=[];autosize=1;strokeColor=none;fillColor=none;" vertex="1" parent="WIyWlLk6GJQsqaUBKTNV-1">
          <mxGeometry x="816" y="246" width="32" height="32" as="geometry" />
        </mxCell>
        <mxCell id="TxAB_qxfAcF2J6m0PcY--117" value="&lt;font style=&quot;font-size: 6px;&quot;&gt;Pass&lt;/font&gt;" style="text;html=1;align=center;verticalAlign=middle;resizable=0;points=[];autosize=1;strokeColor=none;fillColor=none;" vertex="1" parent="WIyWlLk6GJQsqaUBKTNV-1">
          <mxGeometry x="832" y="169.64" width="32" height="32" as="geometry" />
        </mxCell>
        <mxCell id="TxAB_qxfAcF2J6m0PcY--118" value="&lt;font style=&quot;font-size: 6px;&quot;&gt;Pass&lt;/font&gt;" style="text;html=1;align=center;verticalAlign=middle;resizable=0;points=[];autosize=1;strokeColor=none;fillColor=none;rotation=-90;" vertex="1" parent="WIyWlLk6GJQsqaUBKTNV-1">
          <mxGeometry x="520" y="240" width="32" height="32" as="geometry" />
        </mxCell>
        <mxCell id="TxAB_qxfAcF2J6m0PcY--119" value="&lt;font style=&quot;font-size: 6px;&quot;&gt;Pass&lt;/font&gt;" style="text;html=1;align=center;verticalAlign=middle;resizable=0;points=[];autosize=1;strokeColor=none;fillColor=none;rotation=90;" vertex="1" parent="WIyWlLk6GJQsqaUBKTNV-1">
          <mxGeometry x="544" y="240" width="32" height="32" as="geometry" />
        </mxCell>
        <mxCell id="TxAB_qxfAcF2J6m0PcY--122" value="&lt;font style=&quot;font-size: 6px;&quot;&gt;Pass&lt;/font&gt;" style="text;html=1;align=center;verticalAlign=middle;resizable=0;points=[];autosize=1;strokeColor=none;fillColor=none;" vertex="1" parent="WIyWlLk6GJQsqaUBKTNV-1">
          <mxGeometry x="992" y="224" width="32" height="32" as="geometry" />
        </mxCell>
      </root>
    </mxGraphModel>
  </diagram>
</mxfile>
